<?xml version="1.0" encoding="UTF-8"?>
<svg id="Layer_2" data-name="Layer 2" xmlns="http://www.w3.org/2000/svg" viewBox="0 0 890.78 214.86">
  <defs>
    <style>
      .cls-1 {
        fill: none;
      }

      .cls-2 {
        fill: #1b1b36;
      }

      .cls-3 {
        fill: #fdc520;
      }
    </style>
  </defs>
  <g id="Layer_1-2" data-name="Layer 1">
    <g>
      <path class="cls-3" d="M.51,41.47c1.13,2.87,3.46,4.04,6.53,4.03,15.09-.02,30.18,0,45.26.01,1.11,0,2.23,0,3.78,0-.57,4.89.05,8.98,6.94,7.56v113.01c.27.05.53.1.8.15,2.67-5.32,26.34-28.82,26.38-30.77.15-6.82.06-75.17.06-81.86,2.11-.63,4.74-.65,5.84-1.96,1.06-1.26.55-3.85.74-6h694.27c0,4.08,0,8.21,0,12.34,0,1.53-.07,3.06.03,4.59.1,1.56-.26,2.52-1.85,3.32-2.54,1.28-3.37,3.57-2.7,6.46.58,2.5,1.02,5.04,1.29,7.59.23,2.18,2.88,5.33,4.65,5.2,1.8-.14,3.96-3.13,4.15-5.31.21-2.37.59-4.74,1.12-7.06.89-3.87-.2-6.15-4-7.98v-19.25c3.31,0,6.38.15,9.42-.08,1.16-.08,2.54-.78,3.27-1.66.39-.46-.27-1.97-.69-2.9-3.26-7.29-9.22-10.27-16.77-12.45C758.88,19.75,118.65,10.43,88.69,1.07c-4.81-1.5-8.8-1.5-13.54.47C52.51,10.91,29.7,19.87,6.94,28.96c-1.02.41-2.14.56-3.19.9-.48.15-.94.4-1.36.69-1.92,1.34-3.14,7.74-1.89,10.93M792.3,68.14c.85.06,1.61,1.38,2.41,2.15-.79.8-1.52,2.12-2.4,2.24-.8.11-1.78-1.09-3.3-2.14,1.52-1.1,2.45-2.31,3.29-2.25M93.4,29.54c-.78-.04-2.06-.72-2.21-1.33-2.01-7.85-3.85-15.74-5.93-24.42,27.83,8.54,664.97,16.8,691.88,25.05-.06.25-.12.51-.17.76h-2.38c-20.49,0-651.21,0-671.7,0-3.16,0-6.33.09-9.48-.07M60.7,45.62h31.9c-.06,1.09-.12,2.03-.18,3h-31.72v-3ZM17.63,29.56c-.08-.29-.16-.57-.24-.86,20.09-8.03,40.18-16.07,61.13-24.44-2.55,8.35-4.82,15.99-7.27,23.57-.24.75-1.53,1.65-2.34,1.66-17.1.1-34.19.07-51.29.07M14.59,35.98h19.93c-.16,1.66-.28,3.04-.42,4.47-6.29,0-12.27,0-18.25-.01-.38,0-.76-.18-1.26-.31v-4.15Z"/>
      <path class="cls-2" d="M224.4,88.59c-2.14-2.84-4.21-5.29-6.24-7.38-19.25,5.5-41.98,13.47-64.14,24.4,20.42-12.2,41.49-21.68,59.53-28.58-14.56-11.39-27.94-4.31-51.32,9.82-18.43,11.14-39.36,31.9-54.01,47.77,36.98-25.08,83.51-39.12,116.18-46.03"/>
      <path class="cls-2" d="M289.34,163.7h0c-.83,9.22-7.38,18.15-22.24,19.18-25.33,1.75-60.95-9.27-81.62-11.85-68.12-8.53-96.46,3.68-115.42,21.65,0,0,29.76-19.49,89.93-8.99,21.81,3.81,40.3,9.13,56.38,13.8,36.96,6.14,71.79-8.22,72.96-33.79"/>
      <path class="cls-2" d="M285.01,203.7c35.51-15.91,26.84-69.52-2.99-74.18-29.46-4.61-33.36,25.52-33.36,25.52,0,0,5.3-8.76,13.29-12.55,7.33-3.47,17.11-2.41,23.35,6.08,3,4.08,4.52,9.66,4.03,15.14h0c-1.17,25.57-36,39.94-72.96,33.79h0c28.8,8.36,49.91,14.6,68.64,6.2"/>
      <path class="cls-2" d="M91.48,200.26s20.83-33.84,107.95,0c0,0-59.79-15.93-107.95,0"/>
      <path class="cls-2" d="M158.47,82.73c-12.62-8.83-24.29-4.8-34.08,18.61l-8.82-13.37-5.36,8.45s6.08,13.4,3.75,28.54c0,0,11.79-16.07,28.91-30.34,11-9.18,15.6-11.89,15.6-11.89"/>
      <path class="cls-2" d="M266.13,91.65c-17.92-.77-146.78,13.21-198.94,81.83-2.12,2.8-3.87,13.89-3.87,13.89,49.78-44.12,164.7-12.51,164.7-12.51,2.95-54.07,56.02-82.44,38.11-83.21M104.73,151.62c-1.22.31-2.46-.38-2.77-1.54-.31-1.17.45-2.38,1.69-2.69,1.24-.31,2.47.4,2.75,1.57.29,1.17-.46,2.36-1.68,2.67M119.52,143.7c-1.49.27-2.93-.65-3.2-2.08-.28-1.43.74-2.84,2.26-3.11,1.52-.28,2.94.68,3.18,2.12.24,1.44-.76,2.8-2.25,3.08M134.78,136.78c-1.76.2-3.37-.99-3.57-2.68-.21-1.7,1.1-3.26,2.9-3.47,1.81-.21,3.38,1.03,3.54,2.73.16,1.7-1.12,3.22-2.88,3.42M150.46,130.9c-2.03.1-3.77-1.38-3.88-3.34-.1-1.96,1.52-3.66,3.61-3.75,2.09-.1,3.79,1.44,3.84,3.4.04,1.96-1.54,3.59-3.57,3.69M166.5,126.06c-2.29-.04-4.14-1.83-4.11-4.04.03-2.21,2.01-4.01,4.37-3.96,2.37.04,4.16,1.91,4.05,4.11-.11,2.21-2.03,3.93-4.31,3.89M187.95,118.28c-.31,2.44-2.57,4.21-5.11,4-2.54-.21-4.47-2.33-4.26-4.78.21-2.46,2.55-4.31,5.19-4.09,2.64.22,4.49,2.43,4.18,4.87M205.4,115.56c-.54,2.66-3.17,4.44-5.95,4.02-2.78-.42-4.75-2.88-4.33-5.56.42-2.68,3.15-4.56,6.05-4.12,2.9.44,4.76,3,4.23,5.66"/>
      <polygon class="cls-2" points="417.08 109.05 386.18 109.05 386.18 176.98 367.42 176.98 367.42 109.05 336.53 109.05 336.53 92.82 417.08 92.82 417.08 109.05"/>
      <path class="cls-2" d="M427.3,151.73v-58.91h18.76v57.11c0,7.21,3.73,10.82,11.9,10.82h34.51l-2.4,16.23h-37.03c-16.71,0-25.73-8.06-25.73-25.25"/>
      <path class="cls-2" d="M562.79,157.14h-42.32l-6.49,19.84h-20.2l23.57-67.33c5.05-14.43,13.95-18.03,24.29-18.03s19.6,3.61,24.65,18.03l23.57,67.33h-20.56l-6.49-19.84ZM557.38,140.91l-8.66-26.33c-1.2-3.73-3.97-5.29-7.09-5.29s-5.89,1.56-7.09,5.29l-8.66,26.33h31.5Z"/>
      <polygon class="cls-2" points="679.78 92.82 679.78 176.98 665.59 176.98 617.26 121.67 617.26 176.98 599.7 176.98 599.7 92.82 613.89 92.82 662.22 148.12 662.22 92.82 679.78 92.82"/>
      <polygon class="cls-2" points="771.15 109.05 740.25 109.05 740.25 176.98 721.5 176.98 721.5 109.05 690.6 109.05 690.6 92.82 771.15 92.82 771.15 109.05"/>
      <rect class="cls-2" x="781.97" y="92.82" width="18.76" height="84.16"/>
      <path class="cls-2" d="M814.79,160.75h44.6c8.3,0,12.14-1.92,12.14-7.33,0-5.89-5.29-8.3-13.47-9.74l-15.51-2.76c-16.95-3.01-26.81-9.5-26.81-24.89s10.82-23.2,30.66-23.2h36.19l2.4,16.23h-37.87c-8.3,0-12.14,1.8-12.14,6.61,0,5.53,5.29,7.69,13.47,9.14l15.99,2.89c17.31,3.13,26.33,9.5,26.33,25.37s-10.82,23.93-30.66,23.93h-42.8l-2.53-16.23Z"/>
      <path class="cls-2" d="M320.05,109.65c-3.34-9.53-8.51-14.34-14.62-16.51-7.28-2.58-18.56-1.12-24.71,3.56-5.58,4.25-9.82,9.93-11.58,11.83-13.42,14.55-32.34,44.4-32.19,67.33l22.22,1.12c2.9-24.47,8.06-41.46,22.89-62.4,2.9-5.19,18.41-8.09,20.43,0,5.98,18.33,14.63,44.15,20.56,62.4h20.56l-23.57-67.33Z"/>
      <polygon class="cls-3" points="367.88 189.51 367.88 209.45 363.72 209.45 363.72 196.55 358.37 202.98 355.35 202.98 350 196.55 350 209.45 345.84 209.45 345.84 189.51 349.2 189.51 356.86 198.88 364.52 189.51 367.88 189.51"/>
      <path class="cls-3" d="M393.17,195.18v14.27h-3.59l-.57-1.99c-1.48,1.59-3.27,2.28-5.67,2.28-4.3,0-6.78-2.82-6.78-8.2s2.71-8.03,7.63-8.03c2.93,0,5.89.43,8.97,1.68M388.84,203.41v-5.64c-1.17-.31-2.54-.48-3.93-.51-2.71-.03-3.93,1.28-3.93,4.27s.8,4.36,3.59,4.36c1.94,0,3.33-1.2,4.27-2.48"/>
      <path class="cls-3" d="M414.27,197.43h-2.88c-2.42,0-3.7,1.25-4.61,2.79v9.23h-4.33v-15.66h3.59l.6,2.31c1.39-1.74,3.02-2.45,5.3-2.45h1.76l.57,3.79Z"/>
      <path class="cls-3" d="M421.34,189.57c0-1.45.85-2.33,2.68-2.33s2.68.88,2.68,2.33-.85,2.36-2.68,2.36-2.68-.88-2.68-2.36M421.85,193.78h4.33v15.66h-4.33v-15.66Z"/>
      <path class="cls-3" d="M451.3,199.65v9.8h-4.33v-9.31c0-1.99-.71-2.76-2.85-2.76-1.99,0-3.36,1.05-4.27,2.39v9.68h-4.33v-15.66h3.59l.51,1.94c1.42-1.65,3.16-2.22,5.5-2.22,3.76,0,6.18,1.65,6.18,6.15"/>
      <path class="cls-3" d="M475.65,202.27l-11.22,1.4c.6,1.45,1.91,2.14,3.9,2.14h6.26l-.57,3.65h-5.69c-5.7,0-8.63-2.65-8.63-7.83s2.82-8.12,8.09-8.12c5.58,0,7.86,2.25,7.86,6.95v1.82ZM471.32,199.45c0-1.51-1.02-2.34-3.53-2.34s-3.42.88-3.64,3.25l7.18-.91Z"/>
      <path class="cls-3" d="M496.04,199.48c0-6.78,3.42-9.97,10.68-9.97h5.67l.57,3.84h-6.24c-4.16,0-6.12,1.97-6.12,6.12s1.96,6.12,6.12,6.12h6.24l-.57,3.84h-5.67c-7.26,0-10.68-3.19-10.68-9.97"/>
      <path class="cls-3" d="M533.17,197.43h-2.88c-2.42,0-3.7,1.25-4.61,2.79v9.23h-4.33v-15.66h3.59l.6,2.31c1.4-1.74,3.02-2.45,5.3-2.45h1.77l.57,3.79Z"/>
      <path class="cls-3" d="M556.1,195.18v14.27h-3.59l-.57-1.99c-1.48,1.59-3.28,2.28-5.67,2.28-4.3,0-6.78-2.82-6.78-8.2s2.71-8.03,7.63-8.03c2.93,0,5.9.43,8.97,1.68M551.77,203.41v-5.64c-1.17-.31-2.53-.48-3.93-.51-2.71-.03-3.93,1.28-3.93,4.27s.8,4.36,3.59,4.36c1.94,0,3.33-1.2,4.27-2.48"/>
      <path class="cls-3" d="M581.16,199.65v9.8h-4.33v-9.31c0-1.99-.71-2.76-2.85-2.76-1.99,0-3.36,1.05-4.27,2.39v9.68h-4.33v-15.66h3.59l.51,1.94c1.42-1.65,3.16-2.22,5.5-2.22,3.76,0,6.18,1.65,6.18,6.15"/>
      <path class="cls-3" d="M605.51,202.27l-11.22,1.4c.6,1.45,1.91,2.14,3.9,2.14h6.27l-.57,3.65h-5.7c-5.7,0-8.63-2.65-8.63-7.83s2.82-8.12,8.09-8.12c5.58,0,7.86,2.25,7.86,6.95v1.82ZM601.18,199.45c0-1.51-1.03-2.34-3.53-2.34s-3.42.88-3.65,3.25l7.18-.91Z"/>
      <polygon class="cls-3" points="643.27 193.36 635.95 193.36 635.95 209.45 631.51 209.45 631.51 193.36 624.19 193.36 624.19 189.51 643.27 189.51 643.27 193.36"/>
      <path class="cls-3" d="M663.43,202.27l-11.22,1.4c.6,1.45,1.91,2.14,3.9,2.14h6.27l-.57,3.65h-5.7c-5.7,0-8.63-2.65-8.63-7.83s2.82-8.12,8.09-8.12c5.58,0,7.86,2.25,7.86,6.95v1.82ZM659.1,199.45c0-1.51-1.03-2.34-3.53-2.34s-3.42.88-3.65,3.25l7.18-.91Z"/>
      <path class="cls-3" d="M671.12,201.61c0-5.18,2.88-7.83,8.71-7.83h4.3l.57,3.64h-4.93c-2.99,0-4.24,1.37-4.24,4.19s1.25,4.19,4.24,4.19h5.04l-.57,3.64h-4.41c-5.84,0-8.71-2.65-8.71-7.83"/>
      <path class="cls-3" d="M708.91,199.65v9.8h-4.33v-9.34c0-1.99-.85-2.73-2.59-2.73-2.36,0-3.65.91-4.53,2.25v9.82h-4.33v-21.64h4.33v7.75c1.42-1.48,3.13-2.05,5.61-2.05,3.48,0,5.84,1.6,5.84,6.15"/>
      <path class="cls-3" d="M733.89,199.65v9.8h-4.33v-9.31c0-1.99-.71-2.76-2.85-2.76-1.99,0-3.36,1.05-4.27,2.39v9.68h-4.33v-15.66h3.59l.51,1.94c1.42-1.65,3.16-2.22,5.5-2.22,3.76,0,6.18,1.65,6.18,6.15"/>
      <path class="cls-3" d="M742.29,201.61c0-5.38,2.88-8.12,8.71-8.12s8.69,2.73,8.69,8.12-2.88,8.12-8.69,8.12-8.71-2.73-8.71-8.12M755.27,201.61c0-2.96-1.28-4.33-4.27-4.33s-4.3,1.37-4.3,4.33,1.31,4.33,4.3,4.33,4.27-1.37,4.27-4.33"/>
      <path class="cls-3" d="M768.12,187.8h4.33v16.46c0,1.08.4,1.45,1.4,1.45h.97l-.57,3.73h-1.77c-2.76,0-4.36-1.28-4.36-4.78v-16.86Z"/>
      <path class="cls-3" d="M781.9,201.61c0-5.38,2.88-8.12,8.71-8.12s8.69,2.73,8.69,8.12-2.88,8.12-8.69,8.12-8.71-2.73-8.71-8.12M794.89,201.61c0-2.96-1.28-4.33-4.27-4.33s-4.3,1.37-4.3,4.33,1.31,4.33,4.3,4.33,4.27-1.37,4.27-4.33"/>
      <path class="cls-3" d="M823.57,195.18v12.7c0,4.61-2.88,6.98-8.71,6.98h-5.1l-.57-3.62h5.67c3.05,0,4.39-1.11,4.39-3.3v-1.22c-1.59,1.34-3.59,1.71-5.7,1.71-4.3,0-6.46-2.65-6.46-7.52s2.48-7.43,7.52-7.43c3.67,0,6.49.66,8.97,1.71M819.24,202.75v-4.98c-1.37-.31-2.85-.48-4.16-.54-2.56,0-3.59,1.17-3.59,3.67s.77,3.79,3.53,3.79c1.65,0,3.22-.74,4.22-1.94"/>
      <path class="cls-3" d="M832.34,189.57c0-1.45.85-2.33,2.68-2.33s2.68.88,2.68,2.33-.86,2.36-2.68,2.36-2.68-.88-2.68-2.36M832.85,193.78h4.33v15.66h-4.33v-15.66Z"/>
      <path class="cls-3" d="M861.67,202.27l-11.22,1.4c.6,1.45,1.91,2.14,3.9,2.14h6.27l-.57,3.65h-5.7c-5.7,0-8.63-2.65-8.63-7.83s2.82-8.12,8.09-8.12c5.58,0,7.86,2.25,7.86,6.95v1.82ZM857.34,199.45c0-1.51-1.03-2.34-3.53-2.34s-3.42.88-3.65,3.25l7.18-.91Z"/>
      <path class="cls-3" d="M869.33,205.83h9.2c.88,0,1.48-.34,1.48-1.08,0-.8-.54-1.08-1.74-1.23l-3.73-.48c-3.13-.4-4.98-1.82-4.98-4.76s2.02-4.5,5.72-4.5h7.49l.46,3.62h-8.09c-.94,0-1.42.28-1.42.91,0,.68.46,1,1.57,1.14l4.07.51c3.22.4,4.96,1.71,4.96,4.7s-2.02,4.79-5.72,4.79h-8.77l-.48-3.62Z"/>
      <path class="cls-2" d="M789.3,65.89c-2.54,1.29-3.37,3.57-2.7,6.46.58,2.49,1.02,5.04,1.29,7.59.23,2.18,2.88,5.33,4.65,5.2,1.8-.14,3.97-3.13,4.15-5.31.21-2.37.59-4.74,1.12-7.06.87-3.77-.15-6.04-3.74-7.85h-3.48c-.29.36-.71.68-1.3.98M794.72,70.3c-.79.8-1.52,2.12-2.4,2.24-.8.11-1.78-1.09-3.3-2.14,1.52-1.1,2.45-2.31,3.29-2.25.85.07,1.61,1.38,2.41,2.15"/>
      <rect class="cls-1" x="0" width="890.78" height="214.86"/>
    </g>
  </g>
</svg>